<?xml version="1.0" encoding="utf-8"?>
<!-- Generator: Adobe Illustrator 22.0.1, SVG Export Plug-In . SVG Version: 6.00 Build 0)  -->
<svg version="1.2" baseProfile="tiny" id="Capa_1" xmlns="http://www.w3.org/2000/svg" xmlns:xlink="http://www.w3.org/1999/xlink"
	 x="0px" y="0px" viewBox="0 0 305.9 129.6" xml:space="preserve">
<path fill="none" stroke="#5D5D5D" stroke-width="1.7008" stroke-linecap="round" stroke-miterlimit="10" d="M165.5,117
	c-1.4-0.3-2.5-1.5-2.5-3V93.6"/>
<path fill="none" stroke="#5D5D5D" stroke-width="1.7008" stroke-linecap="round" stroke-miterlimit="10" d="M159.9,93.6V114
	c0,1.5-1,2.7-2.5,3"/>
<path fill="none" stroke="#5D5D5D" stroke-width="1.7008" stroke-linecap="round" stroke-miterlimit="10" d="M161.4,93.6
	c-2.3,0-1,0-1.5,0l-8.8-3.3c-2.2-1.3-3.2-3.9-2.4-6.2l4.1-16.1l-1.1-2.9h19.6l-1.1,2.9l4.1,16.1c0.8,2.4-0.2,5-2.4,6.2l-8.8,3.3
	C162.3,93.6,163.6,93.6,161.4,93.6z"/>
<line fill="none" stroke="#5D5D5D" stroke-width="1.7008" stroke-linecap="round" stroke-miterlimit="10" x1="150.5" y1="117" x2="172.9" y2="117"/>
<g>
	<path fill="#5D5D5D" d="M173.2,25.8c-2.6,0-4.8,2.1-4.8,4.8s2.1,4.8,4.8,4.8c2.6,0,4.8-2.1,4.8-4.8S175.9,25.8,173.2,25.8z
		 M173.2,33.9c-1.8,0-3.3-1.5-3.3-3.3c0-1.8,1.5-3.3,3.3-3.3c1.8,0,3.3,1.5,3.3,3.3C176.5,32.4,175,33.9,173.2,33.9z"/>
	<path fill="#5D5D5D" d="M184.9,30.2c-0.2-0.3-5.1-7.3-11.6-7.3c-6.6,0-11.4,7-11.6,7.3c-0.2,0.3-0.2,0.6,0,0.8
		c0.2,0.3,5.1,7.3,11.6,7.3c6.6,0,11.4-7,11.6-7.3C185,30.8,185,30.5,184.9,30.2z M173.2,36.9c-4.9,0-9-4.8-10.1-6.3
		c1.1-1.5,5.2-6.3,10.1-6.3c4.9,0,9,4.8,10.1,6.3C182.2,32.1,178.2,36.9,173.2,36.9z"/>
</g>
<g>
	<path fill="none" stroke="#5D5D5D" stroke-width="1.7008" stroke-linecap="round" stroke-miterlimit="10" d="M112.9,73.2l0.3,4.6
		l-0.2,0.4c-0.9,1.8-0.9,3.9,0.2,5.6l0.4,0.7l2.2,29.7c0.1,1.6,1.4,2.8,3,2.8h11.1c1.6,0,2.9-1.2,3-2.8l2.2-29.7l0.4-0.7
		c1-1.7,1.1-3.8,0.2-5.6l-0.2-0.4l0.3-4.6H112.9z"/>
</g>
<line fill="#FFFFFF" stroke="#5D5D5D" stroke-width="1.7008" stroke-linecap="round" stroke-miterlimit="10" stroke-dasharray="4,3" x1="160.2" y1="38.3" x2="125.7" y2="60.4"/>
<path fill="none" stroke="#5D5D5D" stroke-width="1.7008" stroke-linecap="round" stroke-miterlimit="10" d="M135.4,72.8
	c0.2-0.3,0.3-0.7,0.3-1.1c0-1.3-1-2.3-2.3-2.3c-0.3,0-0.7,0.1-0.8,0.1l0,0c-0.2-1.5-1.5-2.6-3-2.6c-1.7,0-3.1,1.4-3.1,3.1v0
	c0-2.2-1.8-4-4-4c-1.8,0-3.3,1.2-3.8,2.9c-0.5-0.2-1.1-0.4-1.7-0.4c-2.2,0-4,1.8-4,4"/>
<line fill="#FFFFFF" stroke="#5D5D5D" stroke-width="1.7008" stroke-linecap="round" stroke-miterlimit="10" stroke-dasharray="4,3" x1="168.4" y1="43.3" x2="161.4" y2="61.5"/>
<g>
	<path fill="#E2A454" d="M115.4,82.6l0.3,0.5l1.7,29.6c0.1,1.2,1.1,2.2,2.4,2.2h8.8c1.2,0,2.3-1,2.4-2.2l1.7-29.6l0.3-0.5
		c0.5-0.9,0.7-1.9,0.6-2.8h-18.9C114.7,80.7,114.9,81.7,115.4,82.6z"/>
</g>
<g>
	<path fill="#F4D364" d="M151.3,83.8c-0.6,1.9,0.2,4,1.9,5c1.5,0.5,2.7,1,3.7,1.3c2.8,1,5.7,1,8.5,0.1c1.9-0.6,3.9-1.2,4.3-1.5
		c1.7-1,2.5-3.1,1.9-5l-1.6-6.3h-17.1L151.3,83.8z"/>
</g>
</svg>
